<?xml version="1.0" standalone="no"?>
<!DOCTYPE svg PUBLIC "-//W3C//DTD SVG 20010904//EN"
 "http://www.w3.org/TR/2001/REC-SVG-20010904/DTD/svg10.dtd">
<svg version="1.0" xmlns="http://www.w3.org/2000/svg"
 width="16.000000pt" height="16.000000pt" viewBox="0 0 16.000000 16.000000"
 preserveAspectRatio="xMidYMid meet">
<metadata>
Created by potrace 1.11, written by Peter Selinger 2001-2013
</metadata>
<g transform="translate(0.000000,16.000000) scale(0.003125,-0.003125)"
fill="#000000" stroke="none">
<path d="M145 5076 c-60 -28 -97 -66 -124 -126 -20 -45 -21 -52 -21 -2397 0
-1851 3 -2363 13 -2400 8 -31 28 -64 58 -97 l47 -51 2418 -3 c1331 -1 2429 0
2442 3 13 3 43 24 66 45 83 77 77 -153 74 2510 -3 2295 -4 2366 -22 2403 -25
50 -76 97 -128 119 -40 16 -191 17 -2408 17 l-2365 1 -50 -24z"/>
</g>
</svg>
